<?xml version="1.0" standalone="no"?>
<!DOCTYPE svg PUBLIC "-//W3C//DTD SVG 20010904//EN"
 "http://www.w3.org/TR/2001/REC-SVG-20010904/DTD/svg10.dtd">
<svg version="1.0" xmlns="http://www.w3.org/2000/svg"
 width="1280.000000pt" height="714.000000pt" viewBox="0 0 1280.000000 714.000000"
 preserveAspectRatio="xMidYMid meet">
<g transform="translate(0.000000,714.000000) scale(0.100000,-0.100000)"
fill="#000000" stroke="none">
<path d="M4430 7134 c-14 -2 -52 -9 -85 -15 -114 -20 -354 -121 -778 -325
-163 -79 -331 -155 -371 -169 -91 -31 -216 -33 -351 -8 -75 14 -155 17 -480
17 -405 1 -476 -5 -665 -50 -100 -24 -253 -105 -391 -208 -171 -127 -231 -200
-282 -343 -15 -40 -36 -92 -48 -115 -42 -84 -224 -239 -359 -308 -30 -15 -137
-55 -237 -88 -201 -67 -248 -88 -310 -138 -86 -70 -93 -165 -24 -309 33 -66
61 -104 143 -190 118 -124 212 -190 332 -234 177 -63 193 -66 421 -65 178 0
235 5 375 27 414 68 489 79 715 103 385 42 640 26 910 -57 173 -53 615 -264
847 -403 214 -128 268 -178 779 -707 119 -123 233 -247 253 -276 47 -66 79
-145 117 -291 30 -114 32 -126 40 -424 4 -170 10 -311 12 -315 3 -5 10 -98 16
-208 7 -110 19 -270 29 -355 12 -114 16 -246 16 -500 0 -370 -6 -436 -50 -526
-31 -65 -73 -94 -197 -134 -78 -25 -102 -38 -130 -69 -39 -43 -71 -121 -92
-223 -28 -129 -13 -185 51 -207 53 -18 1169 -27 1654 -13 l354 10 66 34 c36
19 180 111 320 204 331 220 303 204 674 389 298 148 323 163 351 203 28 41 30
49 29 135 0 78 -6 109 -38 207 -32 98 -39 132 -43 231 -5 103 -3 120 15 156
83 161 215 215 684 278 599 81 847 148 1078 291 284 176 316 179 630 62 466
-174 729 -187 1315 -66 216 44 373 98 580 199 321 156 477 305 492 468 3 33 0
74 -6 93 -15 46 -64 73 -112 64 -37 -7 -162 -81 -242 -145 -204 -161 -505
-268 -942 -335 -531 -82 -824 -23 -1068 213 -110 107 -184 209 -260 357 -122
241 -198 461 -272 790 -55 244 -124 482 -184 644 -53 138 -153 375 -184 430
-92 169 -180 308 -258 410 -72 95 -270 289 -329 323 -62 35 -591 284 -665 312
-33 13 -107 44 -165 70 -58 25 -148 64 -200 85 -99 39 -386 170 -480 219 -149
77 -278 120 -730 241 -349 93 -462 127 -925 280 -685 226 -863 269 -1155 275
-91 2 -176 2 -190 -1z m2353 -4182 c15 -10 34 -27 42 -38 22 -29 18 -111 -11
-205 -83 -274 -86 -290 -91 -505 -3 -123 -1 -234 6 -287 24 -180 124 -531 201
-707 20 -47 54 -136 75 -198 35 -107 37 -120 33 -205 -4 -72 -11 -103 -31
-142 -36 -72 -107 -147 -192 -204 -90 -60 -158 -86 -276 -107 -134 -23 -193
-7 -364 99 -119 75 -186 72 -379 -12 -124 -54 -141 -58 -167 -38 -51 39 -46
85 27 268 91 225 96 452 19 773 -41 168 -55 264 -55 373 0 114 15 172 61 240
47 68 620 652 716 730 107 86 177 129 263 159 79 28 87 29 123 6z"/>
<path d="M9433 904 c-69 -17 -480 -216 -611 -296 -45 -28 -98 -68 -117 -89
-33 -37 -35 -43 -35 -110 0 -77 12 -109 57 -150 60 -57 134 -78 358 -104 77
-9 196 -25 265 -37 162 -26 342 -21 440 12 222 75 386 224 341 309 -6 11 -44
39 -84 62 -93 55 -124 88 -143 158 -33 120 -55 147 -146 176 -29 10 -78 30
-109 46 -71 35 -137 42 -216 23z"/>
</g>
</svg>
