<?xml version="1.0" standalone="no"?>
<!DOCTYPE svg PUBLIC "-//W3C//DTD SVG 20010904//EN"
 "http://www.w3.org/TR/2001/REC-SVG-20010904/DTD/svg10.dtd">
<svg version="1.0" xmlns="http://www.w3.org/2000/svg"
 width="1235.000000pt" height="1280.000000pt" viewBox="0 0 1235.000000 1280.000000"
 preserveAspectRatio="xMidYMid meet">
<g transform="translate(0.000000,1280.000000) scale(0.100000,-0.100000)"
fill="#000000" stroke="none">
<path d="M5788 10117 c-28 -13 -184 -176 -298 -312 -261 -312 -450 -643 -539
-943 -50 -169 -65 -270 -65 -447 -1 -210 25 -335 105 -512 l28 -63 -37 0 c-84
0 -368 -22 -527 -40 -598 -69 -1136 -212 -1560 -415 -394 -188 -581 -357 -734
-661 -105 -211 -181 -522 -181 -749 l0 -60 -132 -65 c-366 -180 -680 -420
-827 -630 -142 -203 -233 -436 -282 -725 -27 -155 -37 -500 -20 -682 43 -452
198 -926 411 -1252 33 -51 59 -96 56 -98 -5 -5 25 -95 50 -150 54 -117 173
-261 300 -363 123 -99 343 -234 479 -295 33 -15 93 -42 133 -61 41 -19 78 -34
83 -34 4 0 28 -9 51 -20 138 -63 534 -186 833 -259 110 -27 315 -73 390 -87
213 -40 370 -68 440 -79 22 -3 47 -7 55 -10 8 -2 40 -6 71 -10 31 -3 65 -7 75
-9 22 -4 73 -11 199 -26 50 -6 104 -13 120 -15 44 -6 111 -13 180 -20 33 -3
74 -8 90 -10 17 -2 73 -7 125 -10 52 -4 105 -8 117 -10 12 -2 73 -6 135 -10
62 -4 131 -8 153 -10 233 -20 1410 -25 1760 -7 134 6 69 8 -310 7 -264 -1
-372 -1 -240 1 487 6 1120 33 1370 59 722 74 1160 159 1658 321 75 25 142 42
149 38 6 -4 8 -3 5 3 -4 6 38 26 96 48 56 21 140 56 186 77 46 21 86 37 88 35
3 -4 -154 -76 -252 -116 -27 -11 -46 -20 -41 -20 13 -1 281 95 334 119 23 11
47 20 51 20 5 0 44 16 88 36 185 85 283 134 356 177 43 26 81 47 83 47 5 0 96
63 149 104 77 59 172 157 233 241 34 47 59 85 55 85 -4 0 -25 -17 -47 -38 -22
-20 -2 4 45 53 321 340 495 693 581 1175 19 107 22 162 22 380 1 319 -21 485
-100 752 -171 582 -538 1061 -994 1297 -90 46 -131 62 -180 68 l-65 8 -3 35
c-13 162 -91 425 -181 615 -228 477 -603 853 -1086 1090 -238 117 -419 186
-1010 385 -416 140 -620 213 -835 295 -742 285 -1169 588 -1335 947 -93 202
-109 438 -45 682 15 57 18 82 10 96 -16 30 -41 40 -72 27z m-4562 -7694 c23
-31 24 -34 5 -18 -22 19 -46 55 -38 55 3 0 17 -17 33 -37z m54 -68 c13 -14 21
-25 18 -25 -2 0 -15 11 -28 25 -13 14 -21 25 -18 25 2 0 15 -11 28 -25z m9710
-178 c0 -2 -12 -14 -27 -28 l-28 -24 24 28 c23 25 31 32 31 24z m-70 -61 c0
-2 -8 -10 -17 -17 -16 -13 -17 -12 -4 4 13 16 21 21 21 13z m-795 -516 c-3 -5
-12 -10 -18 -10 -7 0 -6 4 3 10 19 12 23 12 15 0z m-5268 -536 c-3 -3 -12 -4
-19 -1 -8 3 -5 6 6 6 11 1 17 -2 13 -5z m186 -21 c-7 -2 -21 -2 -30 0 -10 3
-4 5 12 5 17 0 24 -2 18 -5z m220 -20 c-7 -2 -21 -2 -30 0 -10 3 -4 5 12 5 17
0 24 -2 18 -5z m100 -10 c-7 -2 -21 -2 -30 0 -10 3 -4 5 12 5 17 0 24 -2 18
-5z m190 -10 c-13 -2 -33 -2 -45 0 -13 2 -3 4 22 4 25 0 35 -2 23 -4z m165
-10 c-21 -2 -55 -2 -75 0 -21 2 -4 4 37 4 41 0 58 -2 38 -4z m305 -10 c-23 -2
-64 -2 -90 0 -26 2 -7 3 42 3 50 0 71 -1 48 -3z"/>
<path d="M7488 993 c12 -2 30 -2 40 0 9 3 -1 5 -23 4 -22 0 -30 -2 -17 -4z"/>
<path d="M7328 983 c18 -2 45 -2 60 0 15 2 0 4 -33 4 -33 0 -45 -2 -27 -4z"/>
</g>
</svg>
