<?xml version="1.0" encoding="iso-8859-1"?>
<!-- Generator: Adobe Illustrator 21.0.0, SVG Export Plug-In . SVG Version: 6.00 Build 0)  -->
<svg version="1.1" id="Capa_1" xmlns="http://www.w3.org/2000/svg" xmlns:xlink="http://www.w3.org/1999/xlink" x="0px" y="0px"
	 viewBox="0 0 512 512" style="enable-background:new 0 0 512 512;" xml:space="preserve">
<polygon style="fill:#D0D1D2;" points="356.03,485.301 155.97,485.301 175.731,331.828 336.269,331.828 "/>
<rect x="118.12" y="26.699" style="fill:#F2F3F3;" width="275.76" height="190.85"/>
<path style="fill:#4A5359;" d="M260.863,158.441L260.863,158.441c-9.499,0-17.199-7.7-17.199-17.199v-12.899h34.397v12.899
	C278.062,150.741,270.361,158.441,260.863,158.441z"/>
<g>
	<path style="fill:#F27F6F;" d="M330.23,158.129h-11.355c-4.143,0-7.5-3.358-7.5-7.5s3.357-7.5,7.5-7.5h11.355
		c4.143,0,7.5,3.358,7.5,7.5S334.373,158.129,330.23,158.129z"/>
	<path style="fill:#F27F6F;" d="M202.851,158.129h-11.355c-4.142,0-7.5-3.358-7.5-7.5s3.358-7.5,7.5-7.5h11.355
		c4.142,0,7.5,3.358,7.5,7.5S206.993,158.129,202.851,158.129z"/>
</g>
<rect x="118.12" y="26.699" style="fill:#E8E9EA;" width="39.523" height="190.85"/>
<path style="fill:#6CB6DE;" d="M388.469,45.898H123.531c-10.603,0-19.199-8.596-19.199-19.199l0,0
	c0-10.603,8.596-19.199,19.199-19.199h264.938c10.603,0,19.199,8.596,19.199,19.199l0,0
	C407.667,37.302,399.072,45.898,388.469,45.898z"/>
<path style="fill:#61A3C7;" d="M164.332,26.699L164.332,26.699c0-10.603,8.596-19.199,19.199-19.199h-60
	c-10.603,0-19.199,8.596-19.199,19.199l0,0c0,10.603,8.596,19.199,19.199,19.199h60C172.928,45.898,164.332,37.302,164.332,26.699z"
	/>
<path style="fill:#F2F3F3;" d="M363.206,504.5H148.794c-4.093,0-7.411-3.318-7.411-7.411v-23.577c0-4.093,3.318-7.411,7.411-7.411
	h214.412c4.093,0,7.411,3.318,7.411,7.411v23.577C370.616,501.182,367.298,504.5,363.206,504.5z"/>
<path style="fill:#E8E9EA;" d="M181.383,497.089v-23.576c0-4.093,3.318-7.411,7.411-7.411h-40c-4.093,0-7.411,3.318-7.411,7.411
	v23.576c0,4.093,3.318,7.411,7.411,7.411h40C184.701,504.5,181.383,501.182,181.383,497.089z"/>
<path style="fill:#F2F3F3;" d="M256,405.934L256,405.934c-83.094,0-150.455-67.361-150.455-150.455v-9.526
	c0-3.548,2.877-6.425,6.425-6.425h288.06c3.548,0,6.425,2.877,6.425,6.425v9.526C406.455,338.573,339.094,405.934,256,405.934z"/>
<path style="fill:#E8E9EA;" d="M400.03,239.528H161.373H111.97c-3.548,0-6.425,2.877-6.425,6.425v9.526
	c0,1.319,0.018,2.633,0.051,3.944c0.007,0.269,0.022,0.535,0.031,0.803c0.033,1.048,0.069,2.096,0.123,3.139
	c0.012,0.223,0.03,0.445,0.042,0.668c0.061,1.09,0.129,2.178,0.213,3.261c0.012,0.152,0.028,0.303,0.04,0.455
	c0.093,1.158,0.197,2.313,0.316,3.464c0.007,0.07,0.016,0.139,0.024,0.208c0.13,1.231,0.273,2.457,0.432,3.679
	c0.002,0.018,0.005,0.035,0.007,0.053c0.502,3.84,1.149,7.633,1.935,11.376v0.001l0,0C123.07,354.725,183.552,405.934,256,405.934
	l0,0c8.414,0,16.664-0.702,24.702-2.03c-61.171-10.105-109.892-57.101-122.541-117.373H403.24
	c2.103-10.021,3.216-20.406,3.216-31.052v-9.526C406.455,242.405,403.578,239.528,400.03,239.528z"/>
<path style="fill:#FFCE71;" d="M388.879,151.057L388.879,151.057V72.718h20.967c5.04,0,9.126,4.086,9.126,9.126v39.121
	C418.972,137.584,405.499,151.057,388.879,151.057z"/>
<path style="fill:#6CB6DE;" d="M394.26,266.769H117.74c-15.045,0-27.241-12.196-27.241-27.241l0,0
	c0-15.045,12.196-27.241,27.241-27.241h276.52c15.045,0,27.241,12.196,27.241,27.241l0,0
	C421.5,254.573,409.304,266.769,394.26,266.769z"/>
<path style="fill:#61A3C7;" d="M160.499,239.528L160.499,239.528c0-15.045,12.196-27.241,27.241-27.241h-70
	c-15.045,0-27.241,12.196-27.241,27.241l0,0c0,15.045,12.196,27.241,27.241,27.241h70
	C172.695,266.769,160.499,254.573,160.499,239.528z"/>
<path d="M429.001,239.528c0-16.716-11.869-30.71-27.621-34.004v-49.092c14.857-5.19,25.093-19.22,25.093-35.468V81.843
	c0-9.167-7.458-16.626-16.626-16.626h-8.467V50.058c8.214-4.558,13.788-13.318,13.788-23.359C415.168,11.977,403.19,0,388.469,0
	H123.531c-14.722,0-26.699,11.977-26.699,26.699c0,10.041,5.574,18.801,13.788,23.359v155.466
	c-15.753,3.294-27.621,17.288-27.621,34.004c0,12.076,6.197,22.728,15.574,28.956c3.803,46.688,27.824,87.402,63.113,113.694
	l-9.841,76.424h-3.051c-8.222,0-14.911,6.689-14.911,14.911v23.576c0,8.222,6.689,14.911,14.911,14.911h214.412
	c8.222,0,14.91-6.689,14.91-14.911v-23.576c0-8.222-6.688-14.911-14.91-14.911h-3.051l-9.838-76.399
	c13.044-9.721,24.585-21.451,34.174-34.837c16.647-23.239,26.589-50.43,28.915-78.869
	C422.795,262.271,429.001,251.613,429.001,239.528z M409.846,80.217c0.896,0,1.626,0.729,1.626,1.626v39.121
	c0,7.816-3.947,14.766-10.093,18.833v-59.58C401.379,80.217,409.846,80.217,409.846,80.217z M123.531,15h264.938
	c6.451,0,11.699,5.248,11.699,11.699s-5.248,11.699-11.699,11.699H123.531c-6.451,0-11.699-5.248-11.699-11.699
	S117.08,15,123.531,15z M363.116,497H148.884v-23.397h9.552c0.005,0,0.01,0.001,0.015,0.001c0.007,0,0.014-0.001,0.021-0.001
	h195.055c0.007,0,0.014,0.001,0.021,0.001c0.005,0,0.01-0.001,0.015-0.001h9.552V497H363.116z M311.376,387.315
	c-3.818,1.606-5.612,6.003-4.006,9.821c1.206,2.869,3.988,4.594,6.916,4.594c0.97,0,1.955-0.189,2.904-0.588
	c6.635-2.791,13.045-6.026,19.197-9.667l8.644,67.128H166.969l8.647-67.156c23.601,13.978,51.107,21.987,80.383,21.987
	c11.153,0,22.292-1.17,33.107-3.477c4.051-0.864,6.635-4.849,5.771-8.9c-0.865-4.051-4.85-6.632-8.899-5.77
	c-9.789,2.088-19.875,3.147-29.979,3.147c-72.241,0-132.603-53.824-141.755-124.34c1.15,0.115,2.315,0.176,3.495,0.176h276.52
	c1.173,0,2.333-0.06,3.477-0.174C391.16,323.918,358.154,367.642,311.376,387.315z M394.26,259.269H117.74
	c-10.885,0-19.741-8.855-19.741-19.741s8.855-19.741,19.741-19.741h0.371c0.003,0,0.006,0,0.01,0c0.004,0,0.006,0,0.01,0h187.137
	c4.143,0,7.5-3.358,7.5-7.5s-3.357-7.5-7.5-7.5H125.62V53.397h260.76v151.39h-53.112c-4.143,0-7.5,3.358-7.5,7.5s3.357,7.5,7.5,7.5
	h60.603c0.003,0,0.006,0,0.01,0s0.006,0,0.01,0h0.37c10.886,0,19.741,8.855,19.741,19.741S405.145,259.269,394.26,259.269z"/>
<path d="M197.173,111.526c-9.015,0-17.409,4.859-21.905,12.681c-2.064,3.591-0.827,8.175,2.764,10.24s8.176,0.827,10.24-2.764
	c1.829-3.181,5.239-5.157,8.901-5.157c3.663,0,7.073,1.976,8.902,5.157c1.387,2.413,3.912,3.764,6.509,3.764
	c1.268,0,2.553-0.322,3.731-0.999c3.591-2.064,4.829-6.649,2.765-10.24C214.583,116.385,206.189,111.526,197.173,111.526z"/>
<path d="M278.061,120.843h-34.397c-4.142,0-7.5,3.358-7.5,7.5v12.899c0,13.619,11.08,24.699,24.699,24.699
	c13.619,0,24.698-11.08,24.698-24.699v-12.899C285.561,124.201,282.204,120.843,278.061,120.843z M270.561,141.242
	c0,5.348-4.351,9.699-9.698,9.699s-9.699-4.351-9.699-9.699v-5.399h19.397V141.242z"/>
<path d="M332.052,129.164v-11.355c0-4.142-3.357-7.5-7.5-7.5s-7.5,3.358-7.5,7.5v11.355c0,4.142,3.357,7.5,7.5,7.5
	S332.052,133.306,332.052,129.164z"/>
<g>
</g>
<g>
</g>
<g>
</g>
<g>
</g>
<g>
</g>
<g>
</g>
<g>
</g>
<g>
</g>
<g>
</g>
<g>
</g>
<g>
</g>
<g>
</g>
<g>
</g>
<g>
</g>
<g>
</g>
</svg>
